<svg version="1.1" id="Calque_1" xmlns="http://www.w3.org/2000/svg" x="0" y="0" viewBox="0 0 635.4 169" style="enable-background:new 0 0 635.4 169" xml:space="preserve"><style>.st0{fill:#fff}</style><path class="st0" d="M91.8 167.2H0l11.9-8.8V61.5L0 53h45.2l-14 8.5v102.1h41.5L96.2 126l-4.5 38.2v3zM105.9 167.2l9.7-6.8v-56.9l-10.8-4.3L134 86.3v74l9.9 6.8h-38zm28.4-95.5h-20.8V50.6h20.8v21.1zM161.5 160.4v-56.8l-10.8-4.5 29.1-12.8v13.9c6.5-4.2 12.2-7.6 17-10.1 4.9-2.5 8.9-3.8 12.1-3.8 6.5 0 11.7 2.1 15.8 6.4 4.1 4.3 6.1 9.8 6.1 16.7v50.9l9.6 6.8H202l10.5-6.8v-50c0-4.3-1.3-7.9-3.9-10.9-2.6-2.9-5.7-4.4-9.4-4.4-2.7 0-5.6.6-8.8 1.9-3.2 1.3-6.7 3.1-10.6 5.3v58l10.3 6.8h-38.4l9.8-6.6zM266.5 164.1c-5.7-3.3-10.1-7.9-13.3-13.9-3.2-6-4.8-12.9-4.8-20.7 0-8.3 1.6-15.8 4.9-22.3 3.2-6.5 7.7-11.6 13.5-15.3 5.8-3.7 12.2-5.6 19.4-5.6 6.1 0 11.4 1.2 16.1 3.7 4.7 2.5 8.3 6 10.9 10.5 2.6 4.5 3.9 9.7 3.9 15.6v1.2h-50l-.2 4.9c0 6.6 1.1 12.4 3.3 17.5 2.2 5.1 5.4 9.1 9.5 12 4.1 2.9 8.8 4.3 14.2 4.3 6.3 0 11.5-1.8 15.8-5.5 4.3-3.6 7.5-9 9.6-16.1-1.6 10.8-5.5 19.3-11.4 25.4-6 6.1-13.4 9.2-22.2 9.2-7.1 0-13.6-1.6-19.2-4.9zm28-49.2c3.5 0 5.2-2.1 5.2-6.3 0-5.3-1.3-10-3.9-13.9-2.6-3.9-5.8-5.9-9.7-5.9-4.7 0-8.8 2.4-12.3 7.1-3.4 4.7-5.6 11.1-6.6 19h27.3zM335.1 160.4v-103l-10.8-4.5 29.1-12.8v60.1c6.5-4.2 12.2-7.6 17-10.1 4.9-2.5 9-3.8 12.3-3.8 6.4 0 11.6 2.1 15.7 6.4 4.1 4.3 6.1 9.8 6.1 16.7v50.9l9.6 6.8h-38.2l10.3-6.8v-50c0-4.3-1.3-7.9-3.9-10.9-2.6-2.9-5.7-4.4-9.3-4.4-4.6 0-11.2 2.4-19.6 7.2v58l10.5 6.8h-38.4l9.6-6.6zM436.3 162.7c-4.1-4.2-6.1-9.8-6.1-16.7v-42.4l-10.8-4.5 29.1-12.8v59.1c0 3.9 1.3 7.2 3.9 10 2.6 2.8 5.8 4.2 9.7 4.2 2.5 0 5.4-.6 8.7-1.8 3.3-1.2 6.8-2.8 10.3-4.9v-49.3l-10.8-4.5 29.1-12.8v68.9l10.2 3.1-28.5 11.1v-14.3c-6.1 4.1-11.5 7.5-16.4 10-4.9 2.6-9.1 3.9-12.7 3.9-6.4 0-11.6-2.1-15.7-6.3zM523.6 169V57.4l-10.8-4.5 29.1-12.8v59.5c5.7-3.9 10.8-7.1 15.5-9.6 4.7-2.5 8.8-3.7 12.4-3.7 6.5 0 12.2 1.6 17.3 4.9 5 3.3 8.9 7.9 11.7 13.8 2.8 5.9 4.2 12.7 4.2 20.3 0 8.5-1.7 16.1-5 22.7-3.3 6.6-8.1 11.7-14.3 15.4-6.2 3.7-13.4 5.6-21.7 5.6-4.7 0-9.5-.7-14.3-2.2-4.8-1.4-9-3.4-12.7-6l-11.4 8.2zm49.5-7c3.2-3 5.8-7.3 7.6-12.7 1.8-5.4 2.7-11.6 2.7-18.5s-1.1-13-3.2-18.4c-2.1-5.4-5-9.6-8.6-12.6-3.7-3-7.7-4.5-12.3-4.5-4 0-9.8 2.3-17.4 6.8V145c.7 6.6 3 11.8 6.8 15.7 3.8 3.9 8.3 5.9 13.4 5.9 4.1-.1 7.8-1.6 11-4.6zM633.5 168.4h-21v-21.9h21v21.9z"/><g><path class="st0" d="M3.1 1.5H632M632 3H3.1c-.8 0-1.5-.7-1.5-1.5S2.3 0 3.1 0H632c.8 0 1.5.7 1.5 1.5S632.8 3 632 3z"/></g></svg>