<?xml version="1.0" encoding="utf-8"?>
<!-- Generator: Adobe Illustrator 26.3.1, SVG Export Plug-In . SVG Version: 6.00 Build 0)  -->
<svg version="1.1" id="Calque_1" xmlns="http://www.w3.org/2000/svg" xmlns:xlink="http://www.w3.org/1999/xlink" x="0px" y="0px"
	 viewBox="0 0 635.4 169" style="enable-background:new 0 0 635.4 169;" xml:space="preserve">
<style type="text/css">
	.st0{fill:#FFFFFF;}
</style>
<g>
	<g>
		<path class="st0" d="M91.8,167.2H0l11.9-8.8V61.5L0,53h45.2l-14,8.5v102.1h41.5L96.2,126l-4.5,38.2V167.2z"/>
		<path class="st0" d="M105.9,167.2l9.7-6.8v-56.9l-10.8-4.3L134,86.3v74l9.9,6.8H105.9z M134.3,71.7h-20.8V50.6h20.8V71.7z"/>
		<path class="st0" d="M161.5,160.4v-56.8l-10.8-4.5l29.1-12.8v13.9c6.5-4.2,12.2-7.6,17-10.1c4.9-2.5,8.9-3.8,12.1-3.8
			c6.5,0,11.7,2.1,15.8,6.4c4.1,4.3,6.1,9.8,6.1,16.7v50.9l9.6,6.8H202l10.5-6.8v-50c0-4.3-1.3-7.9-3.9-10.9
			c-2.6-2.9-5.7-4.4-9.4-4.4c-2.7,0-5.6,0.6-8.8,1.9c-3.2,1.3-6.7,3.1-10.6,5.3v58l10.3,6.8h-38.4L161.5,160.4z"/>
		<path class="st0" d="M266.5,164.1c-5.7-3.3-10.1-7.9-13.3-13.9c-3.2-6-4.8-12.9-4.8-20.7c0-8.3,1.6-15.8,4.9-22.3
			c3.2-6.5,7.7-11.6,13.5-15.3c5.8-3.7,12.2-5.6,19.4-5.6c6.1,0,11.4,1.2,16.1,3.7c4.7,2.5,8.3,6,10.9,10.5
			c2.6,4.5,3.9,9.7,3.9,15.6v1.2h-50l-0.2,4.9c0,6.6,1.1,12.4,3.3,17.5c2.2,5.1,5.4,9.1,9.5,12c4.1,2.9,8.8,4.3,14.2,4.3
			c6.3,0,11.5-1.8,15.8-5.5c4.3-3.6,7.5-9,9.6-16.1c-1.6,10.8-5.5,19.3-11.4,25.4c-6,6.1-13.4,9.2-22.2,9.2
			C278.6,169,272.1,167.4,266.5,164.1z M294.5,114.9c3.5,0,5.2-2.1,5.2-6.3c0-5.3-1.3-10-3.9-13.9c-2.6-3.9-5.8-5.9-9.7-5.9
			c-4.7,0-8.8,2.4-12.3,7.1c-3.4,4.7-5.6,11.1-6.6,19H294.5z"/>
		<path class="st0" d="M335.1,160.4v-103l-10.8-4.5l29.1-12.8v60.1c6.5-4.2,12.2-7.6,17-10.1c4.9-2.5,9-3.8,12.3-3.8
			c6.4,0,11.6,2.1,15.7,6.4c4.1,4.3,6.1,9.8,6.1,16.7v50.9l9.6,6.8h-38.2l10.3-6.8v-50c0-4.3-1.3-7.9-3.9-10.9
			c-2.6-2.9-5.7-4.4-9.3-4.4c-4.6,0-11.2,2.4-19.6,7.2v58l10.5,6.8h-38.4L335.1,160.4z"/>
		<path class="st0" d="M436.3,162.7c-4.1-4.2-6.1-9.8-6.1-16.7v-42.4l-10.8-4.5l29.1-12.8v59.1c0,3.9,1.3,7.2,3.9,10
			c2.6,2.8,5.8,4.2,9.7,4.2c2.5,0,5.4-0.6,8.7-1.8c3.3-1.2,6.8-2.8,10.3-4.9v-49.3l-10.8-4.5l29.1-12.8v68.9l10.2,3.1l-28.5,11.1
			v-14.3c-6.1,4.1-11.5,7.5-16.4,10c-4.9,2.6-9.1,3.9-12.7,3.9C445.6,169,440.4,166.9,436.3,162.7z"/>
		<path class="st0" d="M523.6,169V57.4l-10.8-4.5l29.1-12.8v59.5c5.7-3.9,10.8-7.1,15.5-9.6c4.7-2.5,8.8-3.7,12.4-3.7
			c6.5,0,12.2,1.6,17.3,4.9c5,3.3,8.9,7.9,11.7,13.8c2.8,5.9,4.2,12.7,4.2,20.3c0,8.5-1.7,16.1-5,22.7c-3.3,6.6-8.1,11.7-14.3,15.4
			c-6.2,3.7-13.4,5.6-21.7,5.6c-4.7,0-9.5-0.7-14.3-2.2c-4.8-1.4-9-3.4-12.7-6L523.6,169z M573.1,162c3.2-3,5.8-7.3,7.6-12.7
			c1.8-5.4,2.7-11.6,2.7-18.5c0-6.9-1.1-13-3.2-18.4c-2.1-5.4-5-9.6-8.6-12.6c-3.7-3-7.7-4.5-12.3-4.5c-4,0-9.8,2.3-17.4,6.8v42.9
			c0.7,6.6,3,11.8,6.8,15.7c3.8,3.9,8.3,5.9,13.4,5.9C566.2,166.5,569.9,165,573.1,162z"/>
		<path class="st0" d="M633.5,168.4h-21v-21.9h21V168.4z"/>
	</g>
	<g>
		<line class="st0" x1="3.1" y1="1.5" x2="632" y2="1.5"/>
		<path class="st0" d="M632,3H3.1C2.3,3,1.6,2.3,1.6,1.5S2.3,0,3.1,0H632c0.8,0,1.5,0.7,1.5,1.5S632.8,3,632,3z"/>
	</g>
</g>
</svg>
