<svg width="51" height="56" fill="none" xmlns="http://www.w3.org/2000/svg"><path d="M24.215.428c-1.375.314-1.895.747-1.895 1.581 0 .585 2.101 4.927 2.534 5.23.422.304 1.191.315 1.614.033.346-.238 2.447-4.407 2.534-5.057.065-.466-.195-1.094-.553-1.332-.758-.487-3.02-.736-4.234-.455ZM26.76 2.02c.346.076.541.162.509.238-.238.596-1.538 3.216-1.592 3.216-.087 0-1.668-3.248-1.602-3.302.238-.239 1.862-.325 2.685-.152ZM13.083 4.392c-.769.314-1.57.866-2.22 1.505C9.5 7.261 9.185 8.247 9.9 8.994c.455.477 4.505 2.328 5.1 2.328.705 0 1.225-.4 1.398-1.083.054-.173-.141-1.17-.53-2.75-.553-2.21-.65-2.523-.954-2.859-.444-.476-1.061-.552-1.83-.238Zm1.148 3.292c.238.931.4 1.722.368 1.765-.087.076-3.324-1.397-3.324-1.516 0-.054.281-.39.628-.747.595-.628 1.592-1.31 1.808-1.246.054.022.293.802.52 1.744ZM36.874 4.284c-.563.227-.747.66-1.397 3.27-.617 2.469-.628 2.534-.455 2.924.206.498.748.844 1.31.844.531 0 4.636-1.83 5.09-2.274.4-.39.498-1.104.228-1.635-.423-.823-1.376-1.82-2.328-2.426-1.148-.736-1.863-.942-2.448-.703Zm1.538 2.035c.574.369 1.668 1.44 1.668 1.636 0 .108-3.25 1.559-3.325 1.483-.054-.054.693-3.249.801-3.454.076-.13.195-.087.856.335ZM19.721 14.344c-1.245.411-2.166 1.635-2.166 2.902 0 .27-.043.357-.184.357-.39 0-1.288.52-1.689.975-.52.563-.715 1.007-.769 1.743-.043.552-.054.574-.454.693-.618.184-1.03.422-1.42.834-.389.4-.779 1.202-.79 1.592 0 .173-.346.617-1.104 1.407-1.256 1.31-1.982 2.426-2.534 3.888-.487 1.3-.66 2.307-.856 4.884-.086 1.213-.194 2.252-.238 2.328-.043.065-1.527 1.928-3.303 4.137C1.377 43.624.987 44.155.987 44.48c0 .563.51.931 1.018.747.206-.086 6.54-7.807 7.028-8.576.109-.184.217-.986.336-2.697.217-2.826.379-3.735.877-4.905.498-1.17.975-1.917 1.743-2.761l.661-.715.639.552c.347.303.78.672.953.823l.325.26-.834 1.05c-.455.585-.834 1.127-.834 1.203 0 .563.65 1.05 1.116.844.14-.065 2.598-3.043 5.49-6.627 2.88-3.584 5.37-6.638 5.544-6.779.487-.411 1.256-.379 1.754.054.672.596.737 1.419.184 2.123-.292.368-.292.693 0 1.06.336.423.78.38 1.343-.14.78-.725 1.722-.693 2.296.054.39.52.39 1.148 0 1.809-.163.27-.293.584-.293.704 0 .314.336.66.715.736.293.054.412 0 .899-.433.509-.444.617-.498 1.094-.498.444 0 .595.054.91.335.65.564.725 1.278.205 2.047-.303.466-.314.855-.032 1.17.357.378.812.314 1.353-.185.53-.487 1.05-.639 1.614-.444.671.217 1.126 1.062.931 1.744-.087.314-.877 1.43-1.105 1.57-.054.033-1.007-.596-2.122-1.397s-2.177-1.527-2.35-1.624c-.671-.336-1.57-.422-4.234-.38l-2.599.033-.639.325c-1.494.758-2.046 2.47-1.3 3.963.293.553.856 1.105 1.387 1.333.281.108 4.57 1.147 4.765 1.147.032 0 .086.358.13.78.097 1.04.314 1.993.638 2.783l.26.639-.877 1.072c-1.267 1.548-1.483 1.873-1.483 2.198 0 .52.606.888 1.137.693.097-.043.595-.595 1.104-1.223.51-.629.953-1.16.996-1.18.044-.012.239.172.434.41.194.239.725.759 1.17 1.138.93.79 1.266.877 1.71.433.422-.412.357-.78-.238-1.289-.964-.823-1.754-1.7-2.133-2.339-.737-1.245-1.148-2.848-1.148-4.429 0-.942-.044-.963-3.14-1.678-1.463-.336-2.773-.693-2.903-.78-.628-.411-.682-1.418-.119-1.992.422-.423.758-.455 3.617-.412 2.057.033 2.436.054 2.75.228.195.108 1.744 1.202 3.444 2.425 2.057 1.484 3.184 2.372 3.4 2.675.184.238.845 1.375 1.462 2.501l1.137 2.058 1.386 1.115c1.18.931 1.451 1.105 1.776 1.105.466 0 .726-.303.726-.834 0-.314-.12-.444-1.321-1.419l-1.332-1.072-1.137-2.09c-1.137-2.09-1.83-3.01-2.75-3.649l-.326-.216.563-.715c.726-.91.92-1.375.92-2.242 0-1.678-1.212-2.978-2.923-3.119-.628-.043-.682-.075-.682-.313 0-.141-.076-.434-.163-.64-.444-1.06-1.45-1.775-2.642-1.873l-.704-.065-.086-.411c-.271-1.31-1.387-2.274-2.816-2.437l-.66-.076-.13-.509c-.239-.963-1.018-1.797-1.993-2.122-.888-.303-2.068-.097-2.945.52l-.314.227-.726-.585c-.411-.324-.91-.67-1.115-.78-.412-.216-1.625-.313-2.058-.172Zm2.166 2.22.758.617-.823 1.018c-.66.8-.866.996-1.007.92-.098-.043-.487-.379-.877-.736-.671-.607-.704-.672-.704-1.137 0-.856.606-1.419 1.43-1.343.368.043.627.184 1.223.66Zm-3.064 3.064c.292.227.67.52.833.65l.293.238-.823 1.04-.834 1.028-.672-.53c-.887-.715-1.093-1.007-1.082-1.538.021-.758.584-1.289 1.353-1.289.293 0 .542.109.932.401Zm-2.816 3.249c.238.173.617.454.845.65l.4.335-.833 1.04-.834 1.028-.726-.584c-.812-.65-.985-.932-.985-1.581 0-.358.075-.52.368-.813.487-.487 1.126-.509 1.765-.075ZM46.447 39.77c-.25.292-.303.552-.195.844.119.303 3.498 3.065 3.877 3.162.639.163 1.147-.834.703-1.343-.108-.13-.942-.812-1.851-1.537-1.365-1.072-1.722-1.31-2.014-1.31-.206 0-.423.075-.52.184Z" fill="#fff"/><path d="M26.793 41.394c-.076.022-.65.671-1.267 1.43-.618.757-1.365 1.591-1.657 1.83-.704.617-2.069 1.266-3.108 1.494-.596.119-.942.26-1.159.465-.541.498-6.378 7.851-6.454 8.111-.14.553.412 1.094.975.953.195-.043 1.213-1.245 3.378-3.93l3.12-3.877.876-.239c1.148-.303 1.787-.584 2.675-1.18l.736-.487 1.755 1.32c2.577 1.94 3.811 2.524 5.923 2.827l.942.13 3.281 2.632c2.34 1.884 3.346 2.63 3.552 2.63.14 0 .39-.118.53-.27.282-.281.336-.585.163-.92-.097-.195-6.248-5.187-6.822-5.545-.152-.097-.617-.195-1.04-.227a7.917 7.917 0 0 1-2.913-.78c-.877-.433-4.125-2.815-4.104-3.021.011-.087.38-.606.823-1.159.455-.563.845-1.126.888-1.245.174-.574-.52-1.18-1.093-.942Z" fill="#fff"/></svg>